<svg xmlns="http://www.w3.org/2000/svg" width="48.079" fill="red" height="48.078" viewBox="0 0 48.079 48.078">
  <g id="组_5928" data-name="组 5928" transform="translate(-61.44 -63.716)">
    <path id="路径_6549" data-name="路径 6549" d="M442.862,441.458a3.679,3.679,0,1,0,0,7.359,3.614,3.614,0,0,0,3.679-3.679A3.69,3.69,0,0,0,442.862,441.458Z" transform="translate(-357.383 -357.383)" fill="#fff"/>
    <path id="路径_6550" data-name="路径 6550" d="M85.479,63.716a24.039,24.039,0,1,0,24.039,24.039A24.078,24.078,0,0,0,85.479,63.716Zm10.916,14.35L91.488,93.028a1.482,1.482,0,0,1-.859.859L75.667,98.793c-.368.123-.859.123-.981-.123a.742.742,0,0,1-.123-.981l4.906-14.963a1.482,1.482,0,0,1,.859-.859L95.29,76.961c.368-.123.859-.123.981.123A.742.742,0,0,1,96.394,78.065Z" fill="#fff"/>
  </g>
</svg>
